<mxfile host="app.diagrams.net" modified="2023-07-25T08:49:09.280Z" agent="Mozilla/5.0 (Windows NT 10.0; Win64; x64; rv:109.0) Gecko/20100101 Firefox/115.0" etag="KD2YxJkYQA7X5yetsiG0" version="21.6.5" type="github">
  <diagram id="wFE0QG_FPsp0jaGvCLVb" name="Page-1">
    <mxGraphModel dx="1889" dy="545" grid="1" gridSize="10" guides="1" tooltips="1" connect="1" arrows="1" fold="1" page="1" pageScale="1" pageWidth="850" pageHeight="1100" math="0" shadow="0">
      <root>
        <mxCell id="0" />
        <mxCell id="1" parent="0" />
        <mxCell id="owPlEkq8LNf1HrhJctmY-9" value="" style="rounded=0;whiteSpace=wrap;html=1;" vertex="1" parent="1">
          <mxGeometry y="280" width="850" height="410" as="geometry" />
        </mxCell>
        <mxCell id="owPlEkq8LNf1HrhJctmY-10" value="Region" style="text;html=1;align=center;verticalAlign=middle;resizable=0;points=[];autosize=1;strokeColor=none;fillColor=none;" vertex="1" parent="1">
          <mxGeometry y="250" width="60" height="30" as="geometry" />
        </mxCell>
        <mxCell id="owPlEkq8LNf1HrhJctmY-11" value="VPC" style="text;html=1;align=center;verticalAlign=middle;resizable=0;points=[];autosize=1;strokeColor=none;fillColor=none;" vertex="1" parent="1">
          <mxGeometry x="20" y="300" width="50" height="30" as="geometry" />
        </mxCell>
        <mxCell id="owPlEkq8LNf1HrhJctmY-26" style="edgeStyle=orthogonalEdgeStyle;rounded=0;orthogonalLoop=1;jettySize=auto;html=1;entryX=0;entryY=0.5;entryDx=0;entryDy=0;" edge="1" parent="1" source="owPlEkq8LNf1HrhJctmY-12" target="owPlEkq8LNf1HrhJctmY-16">
          <mxGeometry relative="1" as="geometry" />
        </mxCell>
        <mxCell id="owPlEkq8LNf1HrhJctmY-12" value="Public Subnet{Frontend-App}-AZ1" style="rounded=0;whiteSpace=wrap;html=1;" vertex="1" parent="1">
          <mxGeometry x="190" y="310" width="180" height="70" as="geometry" />
        </mxCell>
        <mxCell id="owPlEkq8LNf1HrhJctmY-24" style="edgeStyle=orthogonalEdgeStyle;rounded=0;orthogonalLoop=1;jettySize=auto;html=1;entryX=0.28;entryY=1.066;entryDx=0;entryDy=0;entryPerimeter=0;" edge="1" parent="1" source="owPlEkq8LNf1HrhJctmY-13" target="owPlEkq8LNf1HrhJctmY-12">
          <mxGeometry relative="1" as="geometry" />
        </mxCell>
        <mxCell id="owPlEkq8LNf1HrhJctmY-25" style="edgeStyle=orthogonalEdgeStyle;rounded=0;orthogonalLoop=1;jettySize=auto;html=1;entryX=0.28;entryY=-0.046;entryDx=0;entryDy=0;entryPerimeter=0;" edge="1" parent="1" source="owPlEkq8LNf1HrhJctmY-13" target="owPlEkq8LNf1HrhJctmY-15">
          <mxGeometry relative="1" as="geometry" />
        </mxCell>
        <mxCell id="owPlEkq8LNf1HrhJctmY-13" value="Bastion Host" style="rounded=0;whiteSpace=wrap;html=1;" vertex="1" parent="1">
          <mxGeometry x="180" y="440" width="120" height="50" as="geometry" />
        </mxCell>
        <mxCell id="owPlEkq8LNf1HrhJctmY-30" style="edgeStyle=orthogonalEdgeStyle;rounded=0;orthogonalLoop=1;jettySize=auto;html=1;entryX=0;entryY=0.5;entryDx=0;entryDy=0;" edge="1" parent="1" source="owPlEkq8LNf1HrhJctmY-15" target="owPlEkq8LNf1HrhJctmY-17">
          <mxGeometry relative="1" as="geometry" />
        </mxCell>
        <mxCell id="owPlEkq8LNf1HrhJctmY-15" value="Public Subnet{Front-App}-AZ2" style="rounded=0;whiteSpace=wrap;html=1;" vertex="1" parent="1">
          <mxGeometry x="190" y="550" width="180" height="70" as="geometry" />
        </mxCell>
        <mxCell id="owPlEkq8LNf1HrhJctmY-28" style="edgeStyle=orthogonalEdgeStyle;rounded=0;orthogonalLoop=1;jettySize=auto;html=1;" edge="1" parent="1" source="owPlEkq8LNf1HrhJctmY-16" target="owPlEkq8LNf1HrhJctmY-18">
          <mxGeometry relative="1" as="geometry" />
        </mxCell>
        <mxCell id="owPlEkq8LNf1HrhJctmY-16" value="Private{Backend-App}-AZ1" style="rounded=0;whiteSpace=wrap;html=1;" vertex="1" parent="1">
          <mxGeometry x="410" y="310" width="180" height="70" as="geometry" />
        </mxCell>
        <mxCell id="owPlEkq8LNf1HrhJctmY-31" style="edgeStyle=orthogonalEdgeStyle;rounded=0;orthogonalLoop=1;jettySize=auto;html=1;entryX=0;entryY=0.5;entryDx=0;entryDy=0;" edge="1" parent="1" source="owPlEkq8LNf1HrhJctmY-17" target="owPlEkq8LNf1HrhJctmY-19">
          <mxGeometry relative="1" as="geometry" />
        </mxCell>
        <mxCell id="owPlEkq8LNf1HrhJctmY-17" value="Private{Backend-App}-AZ2" style="rounded=0;whiteSpace=wrap;html=1;" vertex="1" parent="1">
          <mxGeometry x="410" y="550" width="180" height="70" as="geometry" />
        </mxCell>
        <mxCell id="owPlEkq8LNf1HrhJctmY-18" value="Private Data tier{DB}-AZ1" style="rounded=0;whiteSpace=wrap;html=1;" vertex="1" parent="1">
          <mxGeometry x="630" y="310" width="180" height="70" as="geometry" />
        </mxCell>
        <mxCell id="owPlEkq8LNf1HrhJctmY-19" value="Private Data tier{DB}-AZ2" style="rounded=0;whiteSpace=wrap;html=1;" vertex="1" parent="1">
          <mxGeometry x="630" y="550" width="180" height="70" as="geometry" />
        </mxCell>
        <mxCell id="owPlEkq8LNf1HrhJctmY-37" style="edgeStyle=orthogonalEdgeStyle;rounded=0;orthogonalLoop=1;jettySize=auto;html=1;" edge="1" parent="1" source="owPlEkq8LNf1HrhJctmY-20" target="owPlEkq8LNf1HrhJctmY-13">
          <mxGeometry relative="1" as="geometry" />
        </mxCell>
        <mxCell id="owPlEkq8LNf1HrhJctmY-20" value="CF" style="triangle;whiteSpace=wrap;html=1;" vertex="1" parent="1">
          <mxGeometry x="100" y="435" width="60" height="80" as="geometry" />
        </mxCell>
        <mxCell id="owPlEkq8LNf1HrhJctmY-34" style="edgeStyle=orthogonalEdgeStyle;rounded=0;orthogonalLoop=1;jettySize=auto;html=1;entryX=0.988;entryY=0.625;entryDx=0;entryDy=0;entryPerimeter=0;" edge="1" parent="1" source="owPlEkq8LNf1HrhJctmY-33" target="owPlEkq8LNf1HrhJctmY-35">
          <mxGeometry relative="1" as="geometry">
            <mxPoint x="-10" y="475.0000000000001" as="targetPoint" />
          </mxGeometry>
        </mxCell>
        <mxCell id="owPlEkq8LNf1HrhJctmY-36" style="edgeStyle=orthogonalEdgeStyle;rounded=0;orthogonalLoop=1;jettySize=auto;html=1;entryX=0;entryY=0.5;entryDx=0;entryDy=0;" edge="1" parent="1" source="owPlEkq8LNf1HrhJctmY-33" target="owPlEkq8LNf1HrhJctmY-20">
          <mxGeometry relative="1" as="geometry" />
        </mxCell>
        <mxCell id="owPlEkq8LNf1HrhJctmY-33" value="IGW" style="rhombus;whiteSpace=wrap;html=1;" vertex="1" parent="1">
          <mxGeometry x="20" y="445" width="50" height="60" as="geometry" />
        </mxCell>
        <mxCell id="owPlEkq8LNf1HrhJctmY-35" value="Client" style="ellipse;shape=cloud;whiteSpace=wrap;html=1;" vertex="1" parent="1">
          <mxGeometry x="-180" y="425" width="120" height="80" as="geometry" />
        </mxCell>
        <mxCell id="owPlEkq8LNf1HrhJctmY-40" style="edgeStyle=orthogonalEdgeStyle;rounded=0;orthogonalLoop=1;jettySize=auto;html=1;" edge="1" parent="1" source="owPlEkq8LNf1HrhJctmY-38">
          <mxGeometry relative="1" as="geometry">
            <mxPoint x="385" y="350" as="targetPoint" />
          </mxGeometry>
        </mxCell>
        <mxCell id="owPlEkq8LNf1HrhJctmY-42" style="edgeStyle=orthogonalEdgeStyle;rounded=0;orthogonalLoop=1;jettySize=auto;html=1;" edge="1" parent="1" source="owPlEkq8LNf1HrhJctmY-38">
          <mxGeometry relative="1" as="geometry">
            <mxPoint x="385" y="580" as="targetPoint" />
            <Array as="points">
              <mxPoint x="385" y="580" />
            </Array>
          </mxGeometry>
        </mxCell>
        <mxCell id="owPlEkq8LNf1HrhJctmY-38" value="ALB" style="ellipse;whiteSpace=wrap;html=1;aspect=fixed;" vertex="1" parent="1">
          <mxGeometry x="345" y="420" width="80" height="80" as="geometry" />
        </mxCell>
        <mxCell id="owPlEkq8LNf1HrhJctmY-44" value="10.0.0.0/16" style="text;html=1;align=center;verticalAlign=middle;resizable=0;points=[];autosize=1;strokeColor=none;fillColor=none;" vertex="1" parent="1">
          <mxGeometry x="15" y="320" width="80" height="30" as="geometry" />
        </mxCell>
        <mxCell id="owPlEkq8LNf1HrhJctmY-46" value="10.0.1.0/24" style="text;html=1;align=center;verticalAlign=middle;resizable=0;points=[];autosize=1;strokeColor=none;fillColor=none;" vertex="1" parent="1">
          <mxGeometry x="240" y="350" width="80" height="30" as="geometry" />
        </mxCell>
        <mxCell id="owPlEkq8LNf1HrhJctmY-47" value="10.0.2.0/24" style="text;html=1;align=center;verticalAlign=middle;resizable=0;points=[];autosize=1;strokeColor=none;fillColor=none;" vertex="1" parent="1">
          <mxGeometry x="230" y="590" width="80" height="30" as="geometry" />
        </mxCell>
        <mxCell id="owPlEkq8LNf1HrhJctmY-48" value="10.0.3.0/24" style="text;html=1;align=center;verticalAlign=middle;resizable=0;points=[];autosize=1;strokeColor=none;fillColor=none;" vertex="1" parent="1">
          <mxGeometry x="460" y="350" width="80" height="30" as="geometry" />
        </mxCell>
        <mxCell id="owPlEkq8LNf1HrhJctmY-49" value="10.0.4.0/24" style="text;html=1;align=center;verticalAlign=middle;resizable=0;points=[];autosize=1;strokeColor=none;fillColor=none;" vertex="1" parent="1">
          <mxGeometry x="460" y="590" width="80" height="30" as="geometry" />
        </mxCell>
        <mxCell id="owPlEkq8LNf1HrhJctmY-50" value="10.0.5.0/24" style="text;html=1;align=center;verticalAlign=middle;resizable=0;points=[];autosize=1;strokeColor=none;fillColor=none;" vertex="1" parent="1">
          <mxGeometry x="690" y="350" width="80" height="30" as="geometry" />
        </mxCell>
        <mxCell id="owPlEkq8LNf1HrhJctmY-51" value="&lt;div&gt;10.0.6.0/24&lt;/div&gt;" style="text;html=1;align=center;verticalAlign=middle;resizable=0;points=[];autosize=1;strokeColor=none;fillColor=none;" vertex="1" parent="1">
          <mxGeometry x="680" y="590" width="80" height="30" as="geometry" />
        </mxCell>
        <mxCell id="owPlEkq8LNf1HrhJctmY-52" value="" style="rounded=0;whiteSpace=wrap;html=1;" vertex="1" parent="1">
          <mxGeometry x="900" y="265" width="290" height="420" as="geometry" />
        </mxCell>
        <mxCell id="owPlEkq8LNf1HrhJctmY-54" value="" style="rounded=0;whiteSpace=wrap;html=1;" vertex="1" parent="1">
          <mxGeometry x="910" y="270" width="270" height="130" as="geometry" />
        </mxCell>
        <mxCell id="owPlEkq8LNf1HrhJctmY-57" value="&lt;div&gt;Public Route Table&lt;/div&gt;&lt;div&gt;Destination 0.0.0.0/0 -&amp;gt; Target : IGW_ID&lt;br&gt;&lt;/div&gt;" style="text;html=1;align=center;verticalAlign=middle;resizable=0;points=[];autosize=1;strokeColor=none;fillColor=none;" vertex="1" parent="1">
          <mxGeometry x="930" y="310" width="230" height="40" as="geometry" />
        </mxCell>
        <mxCell id="owPlEkq8LNf1HrhJctmY-58" value="" style="rounded=0;whiteSpace=wrap;html=1;" vertex="1" parent="1">
          <mxGeometry x="910" y="410" width="270" height="130" as="geometry" />
        </mxCell>
        <mxCell id="owPlEkq8LNf1HrhJctmY-59" value="&lt;div&gt;Private&amp;nbsp; Route Table&lt;/div&gt;&lt;div&gt;Destination 0.0.0.0/0 -&amp;gt; Target : NAT_ID&lt;br&gt;&lt;/div&gt;" style="text;html=1;align=center;verticalAlign=middle;resizable=0;points=[];autosize=1;strokeColor=none;fillColor=none;" vertex="1" parent="1">
          <mxGeometry x="930" y="450" width="230" height="40" as="geometry" />
        </mxCell>
        <mxCell id="owPlEkq8LNf1HrhJctmY-60" value="" style="rounded=0;whiteSpace=wrap;html=1;" vertex="1" parent="1">
          <mxGeometry x="910" y="550" width="270" height="130" as="geometry" />
        </mxCell>
        <mxCell id="owPlEkq8LNf1HrhJctmY-61" value="&lt;div&gt;Public Route Table&lt;/div&gt;&lt;div&gt;Destination 0.0.0.0/0 -&amp;gt; Target : Nat_ID&lt;br&gt;&lt;/div&gt;" style="text;html=1;align=center;verticalAlign=middle;resizable=0;points=[];autosize=1;strokeColor=none;fillColor=none;" vertex="1" parent="1">
          <mxGeometry x="930" y="590" width="230" height="40" as="geometry" />
        </mxCell>
        <mxCell id="owPlEkq8LNf1HrhJctmY-64" style="edgeStyle=orthogonalEdgeStyle;rounded=0;orthogonalLoop=1;jettySize=auto;html=1;entryX=-0.05;entryY=0;entryDx=0;entryDy=0;entryPerimeter=0;" edge="1" parent="1" source="owPlEkq8LNf1HrhJctmY-62" target="owPlEkq8LNf1HrhJctmY-20">
          <mxGeometry relative="1" as="geometry">
            <mxPoint x="90" y="240" as="targetPoint" />
          </mxGeometry>
        </mxCell>
        <mxCell id="owPlEkq8LNf1HrhJctmY-62" value="&lt;div&gt;&lt;font style=&quot;font-size: 18px;&quot;&gt;S3&lt;font&gt;&lt;br&gt;&lt;/font&gt;&lt;/font&gt;&lt;/div&gt;&lt;div&gt;&lt;font style=&quot;font-size: 12px;&quot;&gt;Backups&lt;font&gt;&lt;br&gt;&lt;/font&gt;&lt;/font&gt;&lt;/div&gt;" style="ellipse;whiteSpace=wrap;html=1;aspect=fixed;" vertex="1" parent="1">
          <mxGeometry x="-170" y="180" width="120" height="120" as="geometry" />
        </mxCell>
        <mxCell id="owPlEkq8LNf1HrhJctmY-65" value="Development Environment" style="text;html=1;align=center;verticalAlign=middle;resizable=0;points=[];autosize=1;strokeColor=none;fillColor=none;" vertex="1" parent="1">
          <mxGeometry x="60" y="188" width="160" height="30" as="geometry" />
        </mxCell>
        <mxCell id="owPlEkq8LNf1HrhJctmY-66" value="Web Tier_AZ1" style="text;html=1;align=center;verticalAlign=middle;resizable=0;points=[];autosize=1;strokeColor=none;fillColor=none;" vertex="1" parent="1">
          <mxGeometry x="220" y="280" width="100" height="30" as="geometry" />
        </mxCell>
        <mxCell id="owPlEkq8LNf1HrhJctmY-67" value="Web Tier_AZ2" style="text;html=1;align=center;verticalAlign=middle;resizable=0;points=[];autosize=1;strokeColor=none;fillColor=none;" vertex="1" parent="1">
          <mxGeometry x="230" y="620" width="100" height="30" as="geometry" />
        </mxCell>
        <mxCell id="owPlEkq8LNf1HrhJctmY-68" value="App&amp;nbsp; Tier_AZ1" style="text;whiteSpace=wrap;html=1;" vertex="1" parent="1">
          <mxGeometry x="440" y="280" width="110" height="40" as="geometry" />
        </mxCell>
        <mxCell id="owPlEkq8LNf1HrhJctmY-69" value="&lt;div&gt;App&amp;nbsp; Tier_AZ2&lt;/div&gt;&lt;div&gt;&lt;br&gt;&lt;/div&gt;" style="text;whiteSpace=wrap;html=1;" vertex="1" parent="1">
          <mxGeometry x="445" y="620" width="110" height="40" as="geometry" />
        </mxCell>
        <mxCell id="owPlEkq8LNf1HrhJctmY-70" value="Data&amp;nbsp; Tier_AZ1" style="text;whiteSpace=wrap;html=1;" vertex="1" parent="1">
          <mxGeometry x="665" y="280" width="110" height="40" as="geometry" />
        </mxCell>
        <mxCell id="owPlEkq8LNf1HrhJctmY-71" value="Data&amp;nbsp; Tier_AZ2" style="text;whiteSpace=wrap;html=1;" vertex="1" parent="1">
          <mxGeometry x="675" y="620" width="110" height="40" as="geometry" />
        </mxCell>
      </root>
    </mxGraphModel>
  </diagram>
</mxfile>
